<?xml version="1.0" standalone="no"?>
<!DOCTYPE svg PUBLIC "-//W3C//DTD SVG 20010904//EN"
 "http://www.w3.org/TR/2001/REC-SVG-20010904/DTD/svg10.dtd">
<svg version="1.0" xmlns="http://www.w3.org/2000/svg"
 width="320.000000pt" height="320.000000pt" viewBox="0 0 320.000000 320.000000"
 preserveAspectRatio="xMidYMid meet">
<metadata>
Created by potrace 1.11, written by Peter Selinger 2001-2013
</metadata>
<g transform="translate(0.000000,320.000000) scale(0.100000,-0.100000)"
fill="#000000" stroke="none">
<path d="M1520 2729 c8 -42 12 -78 25 -194 3 -27 7 -93 10 -146 3 -53 8 -106
10 -118 l4 -21 -338 0 -339 0 -75 40 c-41 22 -105 51 -142 65 l-67 26 6 -83
c26 -336 27 -871 1 -1078 -2 -19 -7 -55 -10 -80 -10 -79 -53 -247 -86 -332
-33 -87 -101 -213 -150 -281 -35 -48 -35 -53 -8 -67 18 -10 29 -3 98 67 180
181 290 378 347 619 21 91 23 101 29 154 3 25 7 61 10 80 3 19 7 95 10 169 2
73 6 135 7 137 2 1 80 4 173 6 l170 3 0 -165 c0 -332 -30 -456 -119 -490 -32
-12 -163 -13 -222 -1 -48 9 -74 -1 -74 -29 0 -14 12 -23 48 -34 99 -29 169
-80 187 -135 9 -30 39 -34 103 -16 109 31 184 91 222 178 39 89 51 172 56 402
l4 220 38 20 c70 38 49 89 -73 169 -83 55 -90 55 -149 -2 l-51 -49 -157 -2
c-124 -2 -158 1 -159 11 0 7 -1 101 -2 208 l-2 195 357 1 357 2 5 -37 c3 -20
8 -54 11 -76 17 -135 27 -194 52 -315 8 -41 17 -83 18 -92 19 -96 101 -354
145 -457 l22 -50 -33 -48 c-136 -198 -336 -378 -573 -515 -60 -35 -111 -68
-113 -73 -1 -6 1 -17 7 -25 13 -21 87 5 241 83 200 102 392 239 503 357 47 50
50 52 63 34 142 -197 185 -247 288 -331 95 -77 237 -143 311 -146 53 -2 118
28 133 59 21 46 13 100 -25 174 -19 38 -38 85 -41 104 -4 28 18 265 33 339 2
11 6 50 10 87 5 56 3 68 -10 73 -28 11 -45 -4 -56 -47 -51 -195 -118 -400
-141 -430 -11 -14 -29 -26 -41 -26 -30 0 -121 65 -179 128 -56 61 -149 194
-149 213 0 6 10 28 22 48 65 104 145 260 214 416 l53 120 46 6 c68 8 82 37 40
83 -33 36 -246 129 -261 114 -2 -2 -6 -23 -9 -45 -12 -100 -94 -332 -167 -477
l-35 -70 -22 59 c-21 56 -76 242 -87 295 -18 88 -53 307 -59 370 -4 41 -8 80
-8 85 -1 7 142 10 412 11 388 1 415 2 427 19 12 16 11 23 -4 49 -20 34 -148
145 -199 173 -32 17 -33 17 -59 -7 -14 -14 -48 -55 -76 -92 l-50 -68 -229 0
c-211 0 -229 1 -230 18 -1 9 -3 37 -5 62 -2 25 -5 101 -6 169 l-3 125 40 20
c42 22 56 54 32 74 -23 19 -129 42 -223 49 l-92 6 8 -44z"/>
<path d="M1891 2713 c-7 -14 2 -29 50 -75 46 -46 70 -82 109 -163 58 -120 88
-150 140 -141 39 6 89 54 91 86 4 53 2 68 -10 102 -23 69 -126 140 -270 187
-78 25 -97 26 -110 4z"/>
</g>
</svg>
